<?xml version="1.0" encoding="utf-8"?>
<!-- Generator: Adobe Illustrator 25.4.1, SVG Export Plug-In . SVG Version: 6.00 Build 0)  -->
<svg version="1.1" id="Layer_1" xmlns="http://www.w3.org/2000/svg" xmlns:xlink="http://www.w3.org/1999/xlink" x="0px" y="0px"
	 viewBox="0 0 156.2 84" style="enable-background:new 0 0 156.2 84;" xml:space="preserve">
<style type="text/css">
	.st0{fill:#CBD5E1;}
</style>
<path class="st0" d="M112.7,52.4c0.4,0,0.8-0.1,1.2-0.3c0.1-0.1,0.3-0.2,0.4-0.3c0.1-0.1,0.3-0.2,0.4-0.3l0.5-0.4
	c0.3-0.2,0.6-0.5,0.9-0.6c1-0.2,1.6-1,1.6-2c0-1.1-0.9-2.1-2.1-2.1c-1,0-1.8,0.6-3.4,1.8l-0.3,0.2c-0.1,0.1-0.2,0.1-0.3,0.2
	c-0.5,0.3-0.8,0.8-0.9,1.3c-0.1,0.5,0,1.1,0.3,1.5C111.3,52,112,52.4,112.7,52.4z"/>
<path class="st0" d="M146.5,56.4c-0.3,0-0.5,0.1-0.8,0.2c-4.7,2-9.5,3.7-14.4,5c0.1-0.9-0.2-1.8-0.8-2.5c-0.3-0.3-0.6-0.6-1-0.9
	c0.8-0.6,1.1-1.5,0.8-2.4c-0.3-0.8-1-1.3-1.9-1.3c-0.3,0-0.6,0.1-0.8,0.2c-1.1,0.3-2.1,1-2.9,2c-2.7,0.9-5.2,2.1-7.7,3.5
	c-2.1,1.1-4.4,2.4-5.7,2.5c0.1-0.3,0.1-0.5,0.2-0.8c0.4-1.1,0.8-2.1,1.4-3.1l0.1-0.2c0.4-0.7,0.7-1.4,1-2.2c0.2-1.1-0.4-2.2-1.5-2.5
	c-0.1,0-0.3,0-0.4,0c-0.9,0-1.7,0.6-2,1.5c0,0.1-0.3,0.6-0.4,0.9c-2.7,0.5-5.4,0.8-8.1,0.9c-3.4,0-4.8-0.7-5.2-1
	C95.5,55.8,95.1,55,95,54c0.1-1.1-0.7-2.1-1.8-2.3c-0.1,0-0.3,0-0.4,0c-0.9,0.1-1.7,0.6-2.1,1.5c-0.5,0.9-1.2,1.8-1.8,2.6
	c0-0.2-0.1-0.3-0.2-0.4c-0.3-0.5-0.7-0.8-1.2-0.9c-0.2-0.1-0.4-0.1-0.6-0.1c-0.9,0-1.7,0.6-2,1.4c-0.1,0.4-0.2,0.7-0.4,1.1
	c-3.6,2.4-11,5.5-14.1,5.5h-0.2c0.2-0.6,0.5-1.3,0.7-1.9l0.1-0.2c0.7-1.5,1.5-3.2,0.3-4.5c-0.5-0.5-1.2-0.8-1.9-0.8
	c-0.4,0-0.9,0.1-1.3,0.2c-3.4,1.1-7,3.7-9.7,5.8c4.6-8.5,11.1-20,12.7-22.4c0.6-0.9,0.5-2.1-0.4-2.7c-0.3-0.3-0.8-0.5-1.3-0.5
	c-0.7,0-1.3,0.4-1.7,1c-1.2,1.7-5.7,9.7-9.8,17l-1.9,3.5c-8.8,4.9-17.7,8.6-24.9,10.5c-3.2,0.9-6.5,1.3-9.8,1.4
	c-3.1,0-5.5-0.6-7.1-1.7s-2.4-3-2.5-5.5c-0.2-3.2,0.9-7.4,3.2-12.6c4.5-10.4,11.6-19.6,20.6-26.5c3.1-2.4,6.5-4.4,10.1-5.9
	c1.6-0.7,3.3-1.1,5-1.2c0.3,0,0.6,0,0.9,0.1c0.3,0.1,0.5,0.2,0.6,0.7c1.1,2.9-1.4,10.4-4.4,16.4h-0.2c-0.7,0.1-1.2,0.5-1.6,1.1
	c-0.7,1.2-2.7,4.8-0.4,6.2c0.3,0.2,0.7,0.3,1.1,0.3c0.8,0,1.6-0.5,2-1.2c2.4-3.7,4.3-7.7,5.8-11.9c2-5.6,2.5-9.8,1.5-12.4
	c-0.5-1.6-1.8-2.8-3.4-3.2c-0.6-0.2-1.3-0.2-1.9-0.2c-2.3,0.1-4.5,0.6-6.5,1.5c-3.9,1.7-7.6,3.8-11,6.4c-4.4,3.3-8.4,7.2-11.9,11.5
	c-4.1,5.1-7.5,10.7-10.1,16.7C8.7,53,7.5,57.8,7.7,61.7s1.5,6.7,4.3,8.6c2.7,1.7,5.8,2.6,9,2.5h0.5c3.7-0.1,7.3-0.6,10.9-1.6
	c7.1-1.9,13.9-4.6,20.5-8l-0.1,0.2c0,0-1.6,3.2-1.7,3.4c-0.5,1.2-1.1,2.6-0.1,3.7c0.4,0.4,0.9,0.6,1.5,0.6c0.4,0,0.8-0.1,1.2-0.4
	c0.6-0.4,1.4-1.2,2.5-2.2l0.4-0.3c3.1-3,6.5-5.6,10.1-7.8c-0.7,1.4-0.6,3,0.1,4.3c0.8,1.1,2.2,1.7,3.6,1.6h0.3c3,0,7.6-1.7,11.2-3.4
	c-0.2,0.8,0,1.6,0.6,2.2c0.4,0.3,0.8,0.5,1.3,0.5c0.5,0,0.9-0.2,1.3-0.5c2.6-2.2,5-4.5,7.2-7.1c0,0,0.1,0,0.1,0.1
	c0.5,0.7,1.1,1.3,1.8,1.7c1.7,1.1,4.1,1.6,7.3,1.6c2.1,0,4.1-0.2,6.2-0.5c-0.6,1.8-0.5,3.1,0.2,4.2c0.7,1.1,2,1.8,3.3,1.7h0.3
	c2.2-0.1,4.6-1.4,7.2-2.7c-0.1,0.7,0.1,1.5,0.6,2c0.8,0.8,2.1,1.1,4,1.1c1.4,0,2.8-0.2,4.2-0.4c6.9-1.5,13.6-3.6,20.1-6.5
	c1-0.4,1.5-1.6,1.1-2.6C148.2,56.9,147.4,56.4,146.5,56.4z M121.2,62.6c1.5-0.8,3-1.5,4.6-2c0.2,0.2,0.5,0.3,0.7,0.5
	s0.6,0.3,0.7,0.4c-0.3,0.5-2,1.2-4.6,1.2C122.2,62.7,121.7,62.7,121.2,62.6z"/>
</svg>
