<?xml version="1.0" encoding="utf-8"?>
<!-- Generator: Adobe Illustrator 25.4.1, SVG Export Plug-In . SVG Version: 6.00 Build 0)  -->
<svg version="1.1" id="Layer_1" xmlns="http://www.w3.org/2000/svg" xmlns:xlink="http://www.w3.org/1999/xlink" x="0px" y="0px"
	 viewBox="0 0 199.3 262.19" style="enable-background:new 0 0 199.3 262.19;" xml:space="preserve">
<style type="text/css">
	.st0{fill:#EF4C26;}
</style>
<g>
	<path class="st0" d="M100.03,121.82c23.33,0,43,14.12,48.62,33.19h11.07c-5.73-25.03-30.31-43.9-59.68-43.9
		c-33.61,0-60.95,24.7-60.95,55.06s27.34,55.06,60.95,55.06c29.37,0,53.96-18.87,59.69-43.9h-11.07
		c-5.62,19.07-25.28,33.19-48.62,33.19c-27.7,0-50.23-19.89-50.23-44.35C49.8,141.71,72.33,121.82,100.03,121.82z"/>
	<path class="st0" d="M100.03,243.65c-45.97,0-83.37-34.76-83.37-77.48c0-42.73,37.4-77.49,83.37-77.49
		c41.89,0,76.65,28.87,82.49,66.32h10.83c-2.02-14.92-8.04-28.68-17.01-40.33c-0.16-0.46-0.37-0.92-0.67-1.34l-66.13-92.22l0.01,0
		l-9.5-13.3l-4.31,6.03c-0.02,0.02-0.04,0.05-0.06,0.07l-71.3,99.41c-0.31,0.43-0.52,0.89-0.68,1.36
		c-11.15,14.5-17.75,32.27-17.75,51.47c0,48.63,42.21,88.2,94.08,88.2c47.84,0,87.43-33.66,93.3-77.04h-10.81
		C176.68,214.78,141.92,243.65,100.03,243.65z M100.03,26.24l44.7,62.33c-13.3-6.76-28.53-10.61-44.7-10.61
		c-16.17,0-31.4,3.85-44.71,10.61L100.03,26.24z"/>
</g>
</svg>
