<svg id="Layer_1" data-name="Layer 1" xmlns="http://www.w3.org/2000/svg" viewBox="0 0 383.54 84.73"><defs><style>.cls-1{fill:#fff;}</style></defs><path class="cls-1" d="M355.46,33.39c-.41,0-.72,0-.92,0a1.21,1.21,0,0,1-.59-.24,1,1,0,0,1-.4-.87,1.05,1.05,0,0,1,1.11-1c.12,0,.48,0,.77,0,0,0,.95-.12.9,1S355.46,33.39,355.46,33.39Z"/><path class="cls-1" d="M361.11,33.59c-.41-.05-.72,0-.92,0a1.15,1.15,0,0,1-.58-.26,1,1,0,0,1-.37-.89,1.06,1.06,0,0,1,1.15-.94c.12,0,.48,0,.77.05,0,0,.95-.08.86,1S361.11,33.59,361.11,33.59Z"/><path class="cls-1" d="M108.86,42a1.82,1.82,0,0,0,.89-.25l.31-.23a3.09,3.09,0,0,1,.44-.34l.49-.37c.32-.24.78-.6,1-.74a1.51,1.51,0,0,0,1.3-1.49A1.57,1.57,0,0,0,111.73,37c-.86,0-1.61.58-3.11,1.73l-.21.16-.37.27a1.42,1.42,0,0,0-.66,1,1.58,1.58,0,0,0,.21,1.19A1.48,1.48,0,0,0,108.86,42Z"/><path class="cls-1" d="M142.66,47a1.52,1.52,0,0,0-.59.12,113.85,113.85,0,0,1-15.19,5.26l0-.07v-.07a1.7,1.7,0,0,1,0-.26c0-.1,0-.18,0-.18a3.31,3.31,0,0,0-.63-2.3,4.91,4.91,0,0,0-1.25-1,1.06,1.06,0,0,0-.28-.2l0-.09.31-.15a1.66,1.66,0,0,0,.87-2,1.55,1.55,0,0,0-1.42-1,1.47,1.47,0,0,0-.64.15,4.76,4.76,0,0,0-2.71,2,42.77,42.77,0,0,0-7.8,3.57c-2.31,1.26-4.7,2.56-6.07,2.61a2.79,2.79,0,0,1-.42,0,4.58,4.58,0,0,1,.34-1.4,19.53,19.53,0,0,1,1.43-3.14l.07-.13a16.93,16.93,0,0,0,.93-2.07,1.59,1.59,0,0,0-1.12-1.88l-.34,0a1.58,1.58,0,0,0-1.54,1.15A9.88,9.88,0,0,1,106.2,47l0,.1a45.72,45.72,0,0,1-8.45,1c-3.38,0-4.9-.65-5.5-1a3.64,3.64,0,0,1-1.46-2.88,1.87,1.87,0,0,0-1.41-1.91,1.73,1.73,0,0,0-.32,0,2.11,2.11,0,0,0-1.68,1.23,21.32,21.32,0,0,1-2.86,3.79l.12-.36a1.57,1.57,0,0,0-.16-1.25,1.4,1.4,0,0,0-.91-.67,1.54,1.54,0,0,0-.43-.06A1.58,1.58,0,0,0,81.61,46c-.13.43-.27.85-.42,1.28C77.6,49.69,70,52.87,66.72,52.93a3,3,0,0,1-.8-.07,11.81,11.81,0,0,1,.89-2.51l.08-.2c.69-1.47,1.34-2.86.37-4a2,2,0,0,0-1.49-.62,3.61,3.61,0,0,0-1.12.21c-4,1.32-8.4,4.79-11.43,7.23,4.55-8.52,12.15-22,13.85-24.63a1.49,1.49,0,0,0-.3-2.08,1.35,1.35,0,0,0-.92-.35,1.51,1.51,0,0,0-1.29.72c-1.14,1.73-5.7,9.66-9.75,17-.71,1.26-1.37,2.47-2,3.61C43.93,52.2,35,56,27.63,57.83a41.42,41.42,0,0,1-10,1.44c-3.19,0-5.69-.61-7.4-1.81s-2.67-3.14-2.77-5.81c-.16-3.24.92-7.55,3.22-12.82A68.25,68.25,0,0,1,31.48,12.09,46,46,0,0,1,41.71,6.14a15.93,15.93,0,0,1,5.2-1.23,3.76,3.76,0,0,1,1,.12,1.31,1.31,0,0,1,1,1C50.11,9.16,47.45,17,44.47,22.88a.59.59,0,0,1-.53.3,1.58,1.58,0,0,0-1.21.81c-.6,1.09-2.43,4.41-.54,5.51a1.62,1.62,0,0,0,.84.23,1.88,1.88,0,0,0,1.57-.94A58.73,58.73,0,0,0,50.33,17c1.94-5.5,2.43-9.55,1.46-12A4.46,4.46,0,0,0,48.69,2a6.57,6.57,0,0,0-1.78-.22,18.42,18.42,0,0,0-6.35,1.47A48.2,48.2,0,0,0,29.64,9.66a65.33,65.33,0,0,0-11.73,11.4,73.46,73.46,0,0,0-10,16.59C5.4,43.24,4.24,48,4.41,51.82c.12,3.62,1.47,6.36,4,8.15a15.27,15.27,0,0,0,8.67,2.4h.51a43.76,43.76,0,0,0,10.76-1.55,106.36,106.36,0,0,0,21.77-8.66l-.86,1.61-1.7,3.4c-.52,1.21-1,2.26-.17,3.14a1.58,1.58,0,0,0,1.14.49,1.83,1.83,0,0,0,.9-.26c.55-.42,1.38-1.13,2.51-2.17l.36-.32c2.71-2.44,7.25-6.52,11.43-8.53a.11.11,0,0,1,0,.07l-.1.23c-.13.3-.25.59-.36.81-.62,1.69-.62,3,0,4A3.59,3.59,0,0,0,66.46,56h.26c3-.05,8.2-1.93,12.29-4-.16.31-.33.63-.52,1A1.6,1.6,0,0,0,78.87,55a1.29,1.29,0,0,0,1,.38,1.42,1.42,0,0,0,1-.35,59.47,59.47,0,0,0,7.09-7,.51.51,0,0,1,.41-.2.66.66,0,0,1,.53.28,5.92,5.92,0,0,0,1.66,1.6c1.57,1,3.95,1.52,7.08,1.52a44.86,44.86,0,0,0,6.9-.62c-.58,1.46-1,3.25-.14,4.52a3.15,3.15,0,0,0,2.91,1.42h.2c2.23-.12,4.8-1.51,7.52-3a41.2,41.2,0,0,1,7.08-3.29,8.76,8.76,0,0,0,.87.58c1,.6,1,.7.91,1-.38.91-2.55,1.6-5.06,1.6a9.09,9.09,0,0,1-1.8-.16,1.84,1.84,0,0,0-.33,0,1.59,1.59,0,0,0-1.42,1,1.67,1.67,0,0,0,.34,1.72c.66.67,1.84,1,3.61,1a25.55,25.55,0,0,0,4.07-.39c5.14-.92,12-3.15,20-6.44a1.57,1.57,0,0,0,.88-1.94A1.6,1.6,0,0,0,142.66,47Z"/><path class="cls-1" d="M264.52,42a1.8,1.8,0,0,0,.89-.25l.31-.23a3.09,3.09,0,0,1,.44-.34l.49-.37c.32-.24.78-.6,1-.74a1.51,1.51,0,0,0,1.3-1.49A1.57,1.57,0,0,0,267.39,37c-.85,0-1.61.58-3.11,1.73l-.19.15-.39.28a1.42,1.42,0,0,0-.66,1,1.58,1.58,0,0,0,.21,1.19A1.48,1.48,0,0,0,264.52,42Z"/><path class="cls-1" d="M311.61,32.8c2,0,3.94,0,5.85,0,11.82,0,22.35.3,32.23.92a1.58,1.58,0,0,0,1.62-1.57,1.52,1.52,0,0,0-1.48-1.51h0c-9.84-.66-20.18-1-32.55-1h-3.5a.48.48,0,0,1-.43-.24.59.59,0,0,1,0-.6c.47-.94.92-1.85,1.34-2.71.31-.65.61-1.27.92-1.89a1.55,1.55,0,0,0-.81-2.06,1.52,1.52,0,0,0-.59-.12,1.59,1.59,0,0,0-1.42.92c-.93,1.91-2.11,4.23-3.25,6.46a.63.63,0,0,1-.52.29c-5.07.05-10.36.2-16,.35l-1.31,0a1.5,1.5,0,0,0-1.13.49,1.53,1.53,0,0,0-.38,1.18,1.56,1.56,0,0,0,1.57,1.41c3.17,0,5.22.86,6.26,2.62,1.31,2.24,1.12,6.08-.55,11.42a112.87,112.87,0,0,1-15,5.18l0-.07v-.07a1.7,1.7,0,0,1,0-.26c0-.1,0-.18,0-.18a3.31,3.31,0,0,0-.63-2.3,5.09,5.09,0,0,0-1.25-1,1.06,1.06,0,0,0-.28-.2l.05-.09.31-.15a1.66,1.66,0,0,0,.87-2,1.53,1.53,0,0,0-1.42-1,1.47,1.47,0,0,0-.64.15,4.83,4.83,0,0,0-2.72,2,43,43,0,0,0-7.79,3.57c-2.31,1.26-4.7,2.55-6.07,2.61a2.66,2.66,0,0,1-.42,0A4.58,4.58,0,0,1,263,52a19.53,19.53,0,0,1,1.43-3.14l.07-.13a16.93,16.93,0,0,0,.93-2.07,1.59,1.59,0,0,0-1.12-1.88l-.34,0a1.58,1.58,0,0,0-1.54,1.15,9.42,9.42,0,0,1-.55,1.17l0,.09a45.82,45.82,0,0,1-8.46,1c-3.38,0-4.9-.65-5.5-1a3.61,3.61,0,0,1-1.46-2.88A1.87,1.87,0,0,0,245,42.25l-.32,0A2.12,2.12,0,0,0,243,43.45a21.32,21.32,0,0,1-2.86,3.79l.12-.36a1.57,1.57,0,0,0-.16-1.25,1.4,1.4,0,0,0-.91-.67,1.56,1.56,0,0,0-1.91,1c-.13.44-.27.85-.42,1.29-3.6,2.44-11.23,5.61-14.46,5.67a3,3,0,0,1-.8-.07,12.47,12.47,0,0,1,.89-2.52l.08-.19c.68-1.48,1.32-2.88.37-4a2,2,0,0,0-1.49-.62,3.61,3.61,0,0,0-1.12.21c-4,1.32-8.4,4.79-11.43,7.23,4.54-8.51,12.14-22,13.85-24.63a1.49,1.49,0,0,0-.3-2.08,1.35,1.35,0,0,0-.92-.35,1.5,1.5,0,0,0-1.29.72c-1.14,1.74-5.7,9.66-9.75,17l-2,3.59c-8.91,5-17.86,8.76-25.22,10.62a41.42,41.42,0,0,1-10,1.44c-3.2,0-5.69-.61-7.4-1.81s-2.67-3.14-2.77-5.81c-.16-3.24.92-7.55,3.22-12.82a68.25,68.25,0,0,1,20.77-26.74,46,46,0,0,1,10.23-5.95,15.93,15.93,0,0,1,5.2-1.23,3.76,3.76,0,0,1,1,.12,1.31,1.31,0,0,1,1,1c1.23,3.14-1.43,10.94-4.41,16.86a.59.59,0,0,1-.53.3,1.56,1.56,0,0,0-1.21.81c-.6,1.09-2.43,4.41-.54,5.51a1.59,1.59,0,0,0,.84.23,1.88,1.88,0,0,0,1.57-.94A58.73,58.73,0,0,0,206,17c1.94-5.5,2.43-9.55,1.46-12A4.44,4.44,0,0,0,204.33,2a6.57,6.57,0,0,0-1.78-.22,18.42,18.42,0,0,0-6.35,1.47,48.2,48.2,0,0,0-10.92,6.37,65.71,65.71,0,0,0-11.73,11.4,73.46,73.46,0,0,0-10,16.59C161,43.24,159.88,48,160.05,51.82c.13,3.62,1.49,6.36,4,8.15a15.27,15.27,0,0,0,8.67,2.4h.51A43.49,43.49,0,0,0,184,60.82a105.8,105.8,0,0,0,21.8-8.68L205,53.77l-1.7,3.4c-.52,1.21-1,2.26-.17,3.14a1.57,1.57,0,0,0,1.14.49,1.8,1.8,0,0,0,.9-.26c.51-.38,1.29-1,2.51-2.17l.36-.32c2.71-2.44,7.25-6.52,11.43-8.53a.11.11,0,0,1,0,.07l-.1.23c-.13.3-.25.59-.36.81-.62,1.68-.62,3,0,4a3.59,3.59,0,0,0,3.14,1.4h.26c3-.05,8.19-1.92,12.27-4q-.22.45-.51,1a1.6,1.6,0,0,0,.38,1.93,1.31,1.31,0,0,0,1,.38,1.38,1.38,0,0,0,1-.35,58,58,0,0,0,7.09-7,.51.51,0,0,1,.41-.2.66.66,0,0,1,.53.28,6.06,6.06,0,0,0,1.66,1.6c1.57,1,3.95,1.52,7.07,1.52a43.89,43.89,0,0,0,6.92-.63c-.58,1.47-1,3.26-.14,4.53A3.15,3.15,0,0,0,263,56.47h.2c2.23-.12,4.8-1.51,7.52-3a41.2,41.2,0,0,1,7.08-3.29,8.76,8.76,0,0,0,.87.58c1,.6,1,.7.91,1-.38.91-2.55,1.6-5.06,1.6a9.09,9.09,0,0,1-1.8-.16,1.84,1.84,0,0,0-.33,0,1.59,1.59,0,0,0-1.42,1,1.67,1.67,0,0,0,.34,1.72c.66.67,1.84,1,3.61,1a25.55,25.55,0,0,0,4.07-.39,96,96,0,0,0,17.23-5.34l-.16.43a197.53,197.53,0,0,1-10.22,20.37c-2.09,3.76-3.68,6.7-4.63,8.8a1.53,1.53,0,0,0,.58,2,1.41,1.41,0,0,0,.78.25,1.57,1.57,0,0,0,1.4-.81c4.34-8,8.73-15.79,13-23.33l1.85-3.31c4.62-8.26,9-16.07,12.34-22.36A.65.65,0,0,1,311.61,32.8Zm-10.88,1.47-.55-.89a.26.26,0,0,1,0-.3.21.21,0,0,1,.21-.13l1,0c1.81,0,3.6-.09,5.35-.09a.57.57,0,0,1,.49.3.59.59,0,0,1,0,.6c-.83,1.56-1.74,3.2-2.68,4.91-.72,1.3-1.46,2.64-2.2,4a.25.25,0,0,1-.23.14.33.33,0,0,1-.25-.11.24.24,0,0,1-.06-.2C302.33,39,302,36.28,300.73,34.27Z"/><path class="cls-1" d="M312.77,38.75l-.21.16-.37.27a1.42,1.42,0,0,0-.66,1,1.58,1.58,0,0,0,.21,1.19A1.48,1.48,0,0,0,313,42a1.82,1.82,0,0,0,.89-.25l.31-.23a3.09,3.09,0,0,1,.44-.34l.49-.37c.32-.24.78-.6,1-.74a1.51,1.51,0,0,0,1.3-1.49A1.57,1.57,0,0,0,315.88,37C315,37,314.27,37.6,312.77,38.75Z"/><path class="cls-1" d="M379.07,48a1.57,1.57,0,0,0-2.15-.83c-3.46,1.68-11,4.23-14.48,4.23h-.28a3.63,3.63,0,0,1-.8-.08,7.15,7.15,0,0,1,.4-1.25c.39-1,.88-2.17,0-3.19a2.21,2.21,0,0,0-1.67-.67,3.88,3.88,0,0,0-.95.13,22.66,22.66,0,0,0-7.69,3.25l1.15-1.32a1.56,1.56,0,0,0-2.27-2.13c-.3.34-.58.67-.83,1h0a32.92,32.92,0,0,1-9.68,2.77c-.36,0-.7,0-1,0-2.18,0-2.76-.67-2.8-.71-.19-.22-.34-.53,0-1.16a1.65,1.65,0,0,0-.37-1.94,1.6,1.6,0,0,0-1-.32,1.54,1.54,0,0,0-1.12.46,1.75,1.75,0,0,0,.17-.47,1.55,1.55,0,0,0-1.31-1.72,2.92,2.92,0,0,0-.6,0c-1.83,0-4.18,1.19-6.32,3.18a44,44,0,0,0-7.88,3.6c-2.41,1.32-4.69,2.56-6.06,2.61a2.79,2.79,0,0,1-.42,0,4.58,4.58,0,0,1,.34-1.4,19.53,19.53,0,0,1,1.43-3.14l.07-.14a16.24,16.24,0,0,0,.93-2.06,1.59,1.59,0,0,0-1.12-1.88l-.34,0a1.58,1.58,0,0,0-1.54,1.15,8.46,8.46,0,0,1-.54,1.15l-.2.41c-1.25,2.38-3,5.64-1.62,7.63a3.13,3.13,0,0,0,2.91,1.42h.2c2.23-.12,4.8-1.51,7.52-3,1-.55,2.06-1.12,3.13-1.65a2.88,2.88,0,0,0,0,1.52,2.68,2.68,0,0,0,2.15,1.59l.12,0a1.34,1.34,0,0,0,.33,0c1.34,0,3.33-1,6.26-3,.68-.47,1.27-.92,1.77-1.32a.2.2,0,0,1,.1,0,.35.35,0,0,1,.26.12,1.59,1.59,0,0,0,.46.53,6.91,6.91,0,0,0,5,1.69c.37,0,.76,0,1.16,0a28.67,28.67,0,0,0,6.94-1.57,3,3,0,0,0,0,2.84,1.67,1.67,0,0,0,1.37.73,1.87,1.87,0,0,0,.56-.1l.14,0a8.1,8.1,0,0,0,1.79-1.15l.13-.1a20.67,20.67,0,0,1,7.63-3.88s0,0,0,0v0a4.31,4.31,0,0,0-.24.84v.08a2.87,2.87,0,0,0,.4,2.42,3.79,3.79,0,0,0,3.37,1.41h.31c4,0,11.89-2.61,15.79-4.49A1.62,1.62,0,0,0,379.07,48Zm-49.9,1.7-.1.06-.45.3-.44.29a4.15,4.15,0,0,1-.41.27l-.46.27a2.78,2.78,0,0,0-.38.25l-.3.13-.35.16a1,1,0,0,1-.4.12s0-.17.16-.41a5.17,5.17,0,0,1,.49-.6l.3-.35.24-.24.07-.09a1.61,1.61,0,0,0,.4-.38c1.86-1.76,3.56-2.4,4.32-2.4h0a1.53,1.53,0,0,0,.3,0,1.46,1.46,0,0,0,.55-.11c-.73.61-1.9,1.54-3.25,2.52A3.38,3.38,0,0,0,329.17,49.67Z"/><path class="cls-1" d="M355.46,33.39c-.41,0-.72,0-.92,0a1.21,1.21,0,0,1-.59-.24,1,1,0,0,1-.4-.87,1.05,1.05,0,0,1,1.11-1c.12,0,.48,0,.77,0,0,0,.95-.12.9,1S355.46,33.39,355.46,33.39Z"/></svg>