<svg xmlns="http://www.w3.org/2000/svg" id="Layer_1" data-name="Layer 1" viewBox="0 0 156.21 83.96"><defs><style>.cls-1{fill:#fff}</style></defs><path d="M112.67 52.39a2.28 2.28 0 0 0 1.15-.33 2.78 2.78 0 0 0 .37-.27 3.57 3.57 0 0 1 .41-.31l.53-.41c.26-.19.64-.49.86-.63a2 2 0 0 0 1.62-2 2.08 2.08 0 0 0-2.08-2.07c-1 0-1.82.61-3.4 1.83l-.27.2a1.88 1.88 0 0 1-.28.2 2 2 0 0 0-.89 1.28 2 2 0 0 0 .28 1.55 2 2 0 0 0 1.7.96Z" class="cls-1"/><path d="M146.46 56.4a2 2 0 0 0-.77.16 116.28 116.28 0 0 1-14.42 5 3.89 3.89 0 0 0-.75-2.54 5.89 5.89 0 0 0-1-.9 2.15 2.15 0 0 0 .79-2.44 2 2 0 0 0-1.88-1.29 1.89 1.89 0 0 0-.84.19 5.62 5.62 0 0 0-2.86 2 45.33 45.33 0 0 0-7.7 3.55c-2.06 1.13-4.39 2.39-5.67 2.54a7.53 7.53 0 0 1 .24-.76 19.89 19.89 0 0 1 1.4-3.07l.07-.15a17.12 17.12 0 0 0 1-2.18 2.12 2.12 0 0 0-1.52-2.47 2.18 2.18 0 0 0-.44 0 2.1 2.1 0 0 0-2 1.53c0 .13-.29.63-.44.94a44.82 44.82 0 0 1-8.12.89c-3.37 0-4.78-.67-5.23-1A3.15 3.15 0 0 1 95 54a2.29 2.29 0 0 0-1.81-2.35 1.84 1.84 0 0 0-.41 0 2.48 2.48 0 0 0-2.12 1.49 18 18 0 0 1-1.84 2.6 1.69 1.69 0 0 0-.2-.43 1.89 1.89 0 0 0-1.2-.9 2.1 2.1 0 0 0-.56-.08 2.08 2.08 0 0 0-2 1.43c-.12.37-.23.73-.36 1.1-3.59 2.38-11 5.45-14.06 5.5h-.19a18.93 18.93 0 0 1 .74-1.88l.08-.19c.72-1.55 1.47-3.15.28-4.52a2.45 2.45 0 0 0-1.86-.78 4.1 4.1 0 0 0-1.27.22c-3.36 1.11-7 3.68-9.68 5.8 4.57-8.45 11.1-20 12.66-22.43a2 2 0 0 0-.37-2.74 1.87 1.87 0 0 0-1.26-.48 2 2 0 0 0-1.7.95c-1.15 1.73-5.71 9.68-9.77 17l-1.93 3.49c-8.81 4.93-17.67 8.65-24.94 10.49a41.34 41.34 0 0 1-9.84 1.42c-3.09 0-5.49-.58-7.12-1.71s-2.38-3-2.48-5.49c-.16-3.16.91-7.4 3.18-12.6a67.81 67.81 0 0 1 20.61-26.54 45.73 45.73 0 0 1 10.11-5.88 15.46 15.46 0 0 1 5-1.2 3.62 3.62 0 0 1 .88.1c.28.08.47.22.62.7 1.12 2.86-1.36 10.44-4.4 16.45h-.15a2.09 2.09 0 0 0-1.57 1.07c-.66 1.2-2.67 4.84-.36 6.18a2.12 2.12 0 0 0 1.09.3 2.37 2.37 0 0 0 2-1.17A58.77 58.77 0 0 0 54.61 27c2-5.6 2.46-9.77 1.45-12.38a4.93 4.93 0 0 0-3.44-3.2 7.07 7.07 0 0 0-1.9-.23 18.77 18.77 0 0 0-6.54 1.5 48.55 48.55 0 0 0-11 6.43 66.06 66.06 0 0 0-11.86 11.51 74 74 0 0 0-10.09 16.7C8.72 53 7.54 57.83 7.72 61.71s1.54 6.67 4.28 8.55a15.73 15.73 0 0 0 9 2.49h.5a44.22 44.22 0 0 0 10.89-1.56 105.19 105.19 0 0 0 20.46-8l-.12.22s-1.6 3.19-1.71 3.43c-.55 1.25-1.11 2.55-.07 3.69a2.1 2.1 0 0 0 1.49.63 2.43 2.43 0 0 0 1.21-.36c.56-.43 1.4-1.15 2.54-2.19l.37-.33a62.86 62.86 0 0 1 10.13-7.84 4.84 4.84 0 0 0 .11 4.34 4.08 4.08 0 0 0 3.55 1.61h.26c3 0 7.63-1.73 11.19-3.38a2.1 2.1 0 0 0 .6 2.18 1.82 1.82 0 0 0 1.33.52 1.88 1.88 0 0 0 1.27-.46 60.29 60.29 0 0 0 7.18-7.12.15.15 0 0 1 .11.06 6.29 6.29 0 0 0 1.81 1.74c1.65 1.06 4.12 1.6 7.34 1.6a43.42 43.42 0 0 0 6.15-.5c-.56 1.78-.49 3.15.19 4.16a3.6 3.6 0 0 0 3.33 1.66h.26c2.18-.13 4.59-1.36 7.15-2.74a2.27 2.27 0 0 0 .55 2c.76.76 2.06 1.13 4 1.13a26.58 26.58 0 0 0 4.16-.39 103.92 103.92 0 0 0 20.08-6.48 2.07 2.07 0 0 0 1.15-2.59 2.1 2.1 0 0 0-2-1.38Zm-25.22 6.22a32.43 32.43 0 0 1 4.56-2c.24.17.49.32.72.46s.55.34.65.41c-.35.53-2 1.21-4.56 1.21a9.45 9.45 0 0 1-1.37-.08Z" class="cls-1"/></svg>