<?xml version="1.0" encoding="utf-8"?>
<!-- Generator: Adobe Illustrator 25.4.1, SVG Export Plug-In . SVG Version: 6.00 Build 0)  -->
<svg version="1.1" id="Layer_1" xmlns="http://www.w3.org/2000/svg" xmlns:xlink="http://www.w3.org/1999/xlink" x="0px" y="0px"
	 viewBox="0 0 429.61 381.18" style="enable-background:new 0 0 429.61 381.18;" xml:space="preserve">
<style type="text/css">
	.st0{fill:#EF4C26;}
	.st1{fill:#ED9429;}
</style>
<g>
	<path d="M372.53,211.14c-3.1-0.02-6.2-0.01-9.36-0.01l-5.74,0l0-146.74c0-5.04-0.69-5.73-5.67-5.74c-10.19,0-20.38-0.01-30.57,0
		H308.9l-0.44-0.7c-0.11-0.17-0.19-0.29-0.24-0.37c-0.16-0.23-0.39-0.57-0.39-1.08c-0.01-2.27,0.01-4.54,0.04-6.81
		c0.06-4.81,0.12-9.79-0.25-14.61c-0.37-4.87-2.31-8.54-5.6-10.62c-3.65-2.3-8.87-2.5-13.98-0.53c-6.09,2.35-7.06,8.3-7.09,11.63
		c-0.05,4.96-0.04,9.81-0.03,14.95c0.01,2.2,0.01,4.42,0.01,6.65v1.5l-43.62,0c-5.51,0-6.08,0.56-6.08,5.99l0,146.49h-1.5
		c-1.52,0-3,0-4.46-0.01c-1.42,0-2.81-0.01-4.19-0.01c-1.86,0-3.69,0.01-5.53,0.03c-3.02,0.04-4.16,1.19-4.19,4.24
		c-0.04,3.85-0.03,7.76-0.02,11.54l0.01,4.68c0,5.92,0.42,6.33,6.4,6.33l22.62,0v1.5c0,0.42,0.01,0.8,0.01,1.15
		c0.01,0.72,0.03,1.34-0.03,1.99c-1.05,11.87-2.11,23.74-3.19,35.61c-0.5,5.42-1,10.84-1.51,16.26c-0.74,7.98-1.49,15.96-2.2,23.95
		c-0.17,1.92-0.35,3.84-0.53,5.77c-0.64,6.96-1.31,14.15-1.61,21.22c-0.28,6.74,5.33,12.78,12.25,13.19
		c7.29,0.4,13.58-4.61,14.31-11.48c0.94-8.75,1.71-17.67,2.46-26.3c0.32-3.64,0.63-7.28,0.96-10.92l2.88-31.96h60.27l0.81,9.09
		c0.47,5.32,0.94,10.59,1.42,15.85c0.38,4.2,0.75,8.4,1.12,12.6c0.91,10.35,1.85,21.05,2.94,31.55c0.39,3.76,2.46,7.15,5.67,9.29
		c3.38,2.26,7.56,2.88,11.45,1.72c7.01-2.09,10.33-8.27,9.35-17.42c-0.9-8.4-1.65-16.94-2.39-25.21c-0.24-2.7-0.48-5.4-0.72-8.11
		c-1.5-16.59-2.99-33.19-4.46-49.79c-0.36-4.02-0.69-8.04-1.03-12.15l-0.62-7.42l8.68,0c5.34,0.01,10.56,0.01,15.78-0.01
		c3.86-0.01,4.81-0.98,4.83-4.92c0.02-6.96,0.02-12.28,0-17.22C377.27,212.16,376.25,211.16,372.53,211.14z M287.92,35.72
		c0.08-3.63,2.41-6.11,6.09-6.48c1.59-0.16,3.17,0.37,4.43,1.49c1.4,1.24,2.23,3.06,2.27,5c0.12,5,0.09,10.11,0.07,15.06
		c-0.01,2.05-0.02,4.12-0.02,6.2v1.5h-12.9v-1.5c0-2.07-0.01-4.13-0.02-6.18C287.84,45.85,287.82,40.73,287.92,35.72z M238.38,65.72
		h111.94v145.25h-12.49l-0.1-1.4c-0.02-0.29-0.04-0.57-0.07-0.86c-0.06-0.67-0.12-1.36-0.12-2.07c-0.02-7.02-0.03-14.29,0-21.55
		c0.02-5.96-2.39-10.66-7.18-13.98c-2-1.39-2.82-3-2.81-5.56c0.07-14.16,0.13-29.26,0.02-44.39c-0.08-10.53-5.18-20.17-13.99-26.45
		c-8.85-6.3-19.69-7.96-29.72-4.56c-13.6,4.61-22.77,17.39-22.81,31.79c-0.04,16.51-0.03,30.3,0.03,43.4
		c0.01,1.98-0.34,4.06-2.9,5.84c-4.69,3.26-7.07,7.87-7.07,13.71l0,25.96h-12.73V65.72z M330.62,210.93h-22.73v-35.88h1.5
		c1.28,0,2.53-0.02,3.78-0.04c2.88-0.05,5.6-0.09,8.38,0.11c4.97,0.36,8.84,4.36,8.98,9.3c0.15,5.16,0.13,10.4,0.11,15.46
		c-0.01,2.14-0.02,4.29-0.02,6.43L330.62,210.93z M300.6,195.09v15.88h-42.33v-15.88H300.6z M260.56,178.39
		c1.82-2.13,4.56-3.33,7.7-3.37c7.16-0.09,14.15-0.08,21.56-0.05c3.05,0.01,6.12,0.02,9.21,0.02h1.5v12.83h-41.91l-0.19-1.28
		C257.97,183.42,258.73,180.53,260.56,178.39z M268.15,167.91v-24.34l2.45,1.99c15.86,12.88,31.35,12.91,47.37,0.09l2.44-1.95v24.22
		H268.15z M269.86,125.13c12.82-4.09,14.79-5.43,23.41-15.88l1.31-1.58l1.11,1.73c5.36,8.33,13.08,13.55,22.94,15.53l1.38,0.28
		l-0.19,1.39c-1.59,11.88-13.03,21.55-25.5,21.56c0,0-0.01,0-0.01,0c-12.42,0-23.85-9.59-25.49-21.38l-0.17-1.25L269.86,125.13z
		 M268.98,117.24l0.29-1.96c1.3-8.67,10.66-17.94,18.55-18.36l1.7-0.09l-0.13,1.7c-0.61,8.05-9.92,17.37-18.45,18.46L268.98,117.24z
		 M298.93,96.57l1.82,0.22c8.47,1.02,17.79,10.31,18.48,18.41l0.14,1.63l-1.64,0c-8.12-0.02-18.05-11-18.66-18.43L298.93,96.57z
		 M260.41,239.65c-0.08,1.02-0.15,2.04-0.21,3.04c-0.15,2.22-0.3,4.32-0.49,6.47c-0.94,10.4-1.89,20.81-2.85,31.21
		c-0.97,10.57-1.93,21.13-2.89,31.7c-1.1,12.17-2,22.32-2.81,31.95c-0.4,4.67-2.9,7.58-6.45,7.58c-0.18,0-0.37-0.01-0.55-0.02
		c-1.7-0.14-3.14-0.86-4.16-2.08c-1.33-1.59-1.9-3.93-1.63-6.77c1.02-10.98,2-21.97,2.98-32.96c0.48-5.37,0.96-10.74,1.44-16.11
		c1.09-12.12,2.19-24.25,3.29-36.46l1.73-19.15h12.73L260.41,239.65z M298.08,270.63l-0.11-1.38c-0.65-8.32-1.75-8.34-3.59-8.37
		c-1.83-0.03-2.75-0.05-3.84,8.44l-0.17,1.31h-25.49l2.81-32.42h53.21l2.88,32.43H298.08z M348.47,322.27
		c0.65,7.17,1.3,14.34,1.92,21.52c0.19,2.17-0.39,4.17-1.63,5.62c-1.09,1.27-2.64,2.04-4.36,2.16c-0.14,0.01-0.28,0.01-0.42,0.01
		c-3.35,0-6.08-2.78-6.42-6.65c-0.75-8.37-1.48-16.75-2.22-25.12c-0.84-9.53-1.67-19.05-2.53-28.58
		c-0.82-9.17-1.67-18.34-2.52-27.52c-0.63-6.86-1.27-13.71-1.89-20.57c-0.07-0.8-0.06-1.57-0.04-2.39c0.01-0.37,0.02-0.75,0.02-1.15
		v-1.5h12.43l0.64,6.65c0.37,3.8,0.74,7.6,1.09,11.4c1.25,13.85,2.49,27.71,3.73,41.57L348.47,322.27z M370.11,230.79h-151.7v-12.56
		h151.7V230.79z"/>
	<path d="M195.27,351.58l-0.14-0.05c-4.21-1.51-8.56-3.08-12.91-4.32c-2.69-0.77-3.78-2.26-3.76-5.14
		c0.06-12.74,0.06-25.7,0.05-38.23l0-16.18l5.62,0c3.08,0,6.05,0,9.03,0c4.35-0.01,5.23-0.88,5.23-5.18l0-14.21
		c0.01-39.67,0.01-79.34-0.01-119.01c0-10.71-6.89-17.65-17.55-17.67c-17.25-0.04-34.29-0.02-51.67,0
		c-7.45,0.01-12.78,3.46-15.85,10.25c-1.15,2.55-2.76,3.03-4.82,3.04c-5.63-0.05-11.36-0.05-16.9-0.04c-2.87,0-5.73,0-8.6,0
		c-0.58,0-1.13-0.07-1.72-0.15c-0.26-0.03-0.53-0.07-0.83-0.1l-1.34-0.14v-1.35c0-2.38,0.04-4.75,0.08-7.1
		c0.09-5.44,0.17-10.59-0.2-15.78c-0.59-8.13,1.65-13.48,7.25-17.33c0.87-0.6,1.41-1.25,1.47-1.55c0.51-2.43,0.32-3.42,0.08-3.82
		c-0.41-0.68-1.86-1.41-3.23-1.63c-0.39-0.07-1.17,0.29-1.85,0.61c-0.45,0.21-0.92,0.42-1.41,0.59l-1.74,0.61l-0.24-1.83
		c-0.44-3.44-2.04-3.94-3.55-3.98c-1.89-0.02-3.27,0.65-3.83,4.26l-0.35,2.2l-1.91-1.14c-3.85-2.31-5.12-1.33-6.08-0.13
		c-0.95,1.17-1.51,2.79,1.47,5.82c0.52,0.53,1.05,1.03,1.59,1.54c1.16,1.1,2.36,2.24,3.38,3.56c0.61,0.79,2.03,2.86,2.08,5.15
		c0.13,5.76,0.11,11.61,0.09,17.26c-0.01,1.99-0.01,3.98-0.01,5.96v8.15l-1.38,0.11c-12.64,1.02-17.99,4.65-18.48,12.53
		c-0.21,3.47,0.68,6.5,2.74,9.24c3.68,4.9,8.87,5.65,15.53,5.28l1.58-0.09l0,5.9c0,3.16-0.01,6.19,0.01,9.23
		c0.01,1.85,0.44,3.24,1.26,4.03c0.56,0.54,1.34,0.8,2.3,0.78c0.83-0.02,3.34-0.1,3.35-4.76c0.01-7.12,0.01-14.23,0.01-21.35
		l0-13.37h32.84l0,129.34c0,5.88,0.42,6.29,6.43,6.29h13.45l0,10.66c0,15.35,0.01,29.85-0.1,44.64c-0.01,1.71-1.82,3.45-3.12,3.94
		c-2.64,1.01-5.36,1.91-7.98,2.78c-1.83,0.61-3.65,1.22-5.47,1.86c-1.24,0.44-4.02,1.77-3.09,4.66c0.28,0.88,0.79,1.51,1.52,1.88
		c0.99,0.51,2.4,0.51,3.95,0.01c5.71-1.84,11.51-3.76,17.22-5.69c3.56-1.2,3.97-1.78,3.97-5.58c0-12.6,0-25.21,0-37.81l0-21.2h32.84
		v5.2c0,4.66,0,9.32,0.01,13.97c0.01,13.13,0.02,26.7-0.05,40.05c-0.02,2.98,0.95,4.39,3.56,5.21c3.42,1.07,6.86,2.23,10.19,3.36
		c2.56,0.86,5.12,1.73,7.69,2.56c2.57,0.83,4.53,0.12,5.23-1.89C198.92,354.25,197.82,352.49,195.27,351.58z M178.72,138.74
		l1.44-0.06c3.44-0.14,6.2,0.74,8.19,2.64c2.06,1.98,3.11,4.88,3.11,8.63c0.01,24.86,0.01,49.72,0.01,74.58l0,55.96h-12.74V138.74z
		 M72.06,164.52l-1.44,0.05c-0.51,0.02-1.02,0.06-1.53,0.1c-0.71,0.05-1.47,0.11-2.24,0.11c-2.26,0-4.62-0.5-6.24-3.08
		c-1.09-1.73-1.18-4.83-0.19-6.63c1.99-3.64,5.55-3.44,8.41-3.29c0.58,0.03,1.17,0.06,1.75,0.07l1.49,0.01V164.52z M131.66,280.61
		h-12.54l-0.09-1.41c-0.02-0.31-0.04-0.6-0.07-0.89c-0.05-0.64-0.1-1.24-0.1-1.87c-0.01-42.16-0.01-84.32,0-126.49
		c0-3.74,1.04-6.64,3.09-8.61c1.98-1.91,4.77-2.79,8.26-2.67l1.44,0.06V280.61z M138.92,138.77h32.43v72.21h-32.43V138.77z
		 M171.48,280.47h-32.5v-36.48l2.09,0.89c9.51,4.06,18.78,4.05,28.32-0.03l2.09-0.89V280.47z M171.47,233.74
		c-0.04,1.31-1.26,2.29-2.32,3c-3.99,2.68-8.98,4.03-13.97,4.03c-4.99,0-9.98-1.34-13.96-4.03c-0.86-0.58-2.33-1.99-2.39-3.61
		c-0.13-3.27-0.11-6.5-0.09-9.93c0.01-1.2,0.01-2.41,0.01-3.65v-1.5h32.8v1.5c0,1.14,0,2.27,0.01,3.4
		C171.57,226.49,171.58,230.15,171.47,233.74z"/>
	<path d="M121.89,67.69l0,16.89c0,14,6.25,24.35,18.56,30.79c9.71,5.07,21.29,4.83,30.98-0.64c9.86-5.57,16.15-15.5,16.83-26.55
		c0.85-13.86,0.45-27.89,0.02-38.57c-0.48-11.7-6.59-20.29-17.67-24.86c-3.43-1.41-7.03-2.1-10.6-2.1c-7.46,0-14.83,3-20.39,8.64
		c-1.6,1.63-3.89,2.87-5.97,3.25c-7.3,1.33-11.69,6.43-11.75,13.64c-0.04,4.49-0.03,8.99-0.02,13.48
		C121.88,63.66,121.89,65.68,121.89,67.69z M155.24,111.83c-0.02,0-0.05,0-0.08,0c-7.04,0-13.68-2.79-18.72-7.87
		c-4.97-5.01-7.67-11.56-7.6-18.43c0.15-14.33,11.92-26.01,26.25-26.05c0.02,0,0.05,0,0.07,0c7.05,0,13.69,2.78,18.72,7.84
		c4.97,5,7.67,11.54,7.61,18.44C181.36,100.09,169.59,111.79,155.24,111.83z M129,47.33c0.14-1.84,0.85-3.34,2.06-4.32
		c1.41-1.15,3.38-1.57,5.86-1.25c2.47,0.32,3.96-0.32,5.35-2.28c5.5-7.81,14.11-11.37,22.47-9.3c9.56,2.38,15.45,9.22,16.57,19.28
		c0.28,2.53,0.21,5.02,0.14,7.66c-0.03,1.19-0.07,2.4-0.07,3.64v3.15l-2.45-1.99c-15.96-12.98-31.52-12.97-47.57,0.03l-2.44,1.98
		V60.8c0-1.41-0.02-2.79-0.04-4.16C128.82,53.44,128.77,50.41,129,47.33z"/>
	<path d="M164.93,87.14c-2.42-0.72-4.8-1.94-6.72-3.42c-1.17-0.9-2.11-1.35-3.04-1.35c-0.94,0-1.88,0.45-3.04,1.35
		c-1.92,1.48-4.31,2.7-6.72,3.42c-1.83,0.55-3.94,1.72-3.59,4.18c0.14,1,0.61,1.83,1.33,2.34c0.71,0.51,1.63,0.67,2.67,0.47
		c1.05-0.21,2.1-0.45,3.14-0.69c4.96-1.14,10.08-2.32,14.45,0.73c4.71-0.02,5-2.07,5.11-2.85
		C168.86,88.86,166.75,87.69,164.93,87.14z"/>
</g>
</svg>
